<svg width="61" height="61" fill="none" xmlns="http://www.w3.org/2000/svg"><path d="M11.567 51.502 7.355 4.25h46.29L49.43 51.494 30.472 56.75l-18.905-5.248Z" fill="#1572B6"/><path d="m30.5 52.734 15.319-4.247 3.603-40.373H30.5v44.62Z" fill="#33A9DC"/><path d="M30.5 25.233h7.669l.529-5.934H30.5v-5.796H45.031l-.139 1.554L43.47 31.03H30.5v-5.796Z" fill="#fff"/><path d="m30.535 40.284-.026.007-6.454-1.743-.413-4.622h-5.818l.812 9.1 11.87 3.295.029-.007v-6.03Z" fill="#EBEBEB"/><path d="m37.676 30.783-.697 7.76-6.463 1.745v6.03l11.88-3.293.088-.979 1.007-11.263h-5.815Z" fill="#fff"/><path d="M30.522 13.503v5.796H16.523l-.116-1.304-.264-2.938-.14-1.554h14.519ZM30.5 25.233v5.795h-6.374l-.115-1.303-.263-2.938-.139-1.554H30.5Z" fill="#EBEBEB"/></svg>