<svg width="54" height="54" viewBox="0 0 54 54" fill="none" xmlns="http://www.w3.org/2000/svg">
<path d="M51.7466 33.4694V47.0253C51.7466 48.3447 51.2224 49.61 50.2895 50.5429C49.3566 51.4759 48.0913 52 46.7719 52H6.97466C5.65529 52 4.38997 51.4759 3.45704 50.5429C2.52411 49.61 2 48.3447 2 47.0253V7.22807C2 5.90871 2.52411 4.64339 3.45704 3.71046C4.38997 2.77753 5.65529 2.25342 6.97466 2.25342H20.7296" stroke="white" stroke-width="3.75" stroke-linecap="round" stroke-linejoin="bevel"/>
<path d="M50.2299 3.44751L20.0586 32.3254" stroke="white" stroke-width="3.75" stroke-linecap="round" stroke-linejoin="bevel"/>
<path d="M39.3105 2.00471H46.9964C48.1916 1.95032 49.3602 2.36871 50.2493 3.16936C51.1384 3.97001 51.6765 5.08854 51.7472 6.28291V14.4414" stroke="white" stroke-width="3.75" stroke-linecap="round" stroke-linejoin="bevel"/>
</svg>
